<svg width="335" height="297" viewBox="0 0 335 297" fill="none" xmlns="http://www.w3.org/2000/svg">
<g clip-path="url(#clip0)">
<path opacity="0.1" d="M150.079 112.454C136.986 108.214 123.143 104.66 108.995 105.026C88.1958 105.566 68.1976 115.265 58.3344 129.598C49.9973 141.745 48.8845 156.02 45.2451 169.527C40.7612 186.167 32.2501 201.959 23.1663 217.402C18.2872 225.697 13.14 234.166 12.2918 243.28C11.1282 255.934 18.7911 268.585 30.8727 277.065C42.9542 285.544 59.0304 290.063 75.1826 291.119C83.7771 291.677 92.7595 291.246 100.411 288.148C108.506 284.884 114.425 278.911 122.552 275.683C130.084 272.694 138.864 272.31 147.313 272.749C158.256 273.302 169.093 275.16 179.596 278.283C191.373 281.809 202.316 286.883 214.068 290.459C225.82 294.035 238.956 296.059 250.998 293.183C262.304 290.484 271.272 283.832 279.359 277.094C292.391 266.262 304.509 254.374 315.589 241.55C322.893 233.067 329.697 224.108 332.959 214.196C339.19 195.242 330.842 173.781 312.163 160.728C296.689 149.909 275.872 145.132 255.486 142.231C236.894 139.558 215.384 139.293 198.297 132.485C181.999 125.975 167.174 117.989 150.079 112.454Z" fill="#FF8000"></path>
<path opacity="0.1" d="M316.974 179.503C321.6 179.503 325.351 178.988 325.351 178.353C325.351 177.718 321.6 177.203 316.974 177.203C312.347 177.203 308.597 177.718 308.597 178.353C308.597 178.988 312.347 179.503 316.974 179.503Z" fill="#FF8000"></path>
<path opacity="0.1" d="M284.883 182.76C289.509 182.76 293.26 182.245 293.26 181.61C293.26 180.975 289.509 180.46 284.883 180.46C280.256 180.46 276.506 180.975 276.506 181.61C276.506 182.245 280.256 182.76 284.883 182.76Z" fill="#FF8000"></path>
<path opacity="0.1" d="M247.083 178.353C251.71 178.353 255.46 177.838 255.46 177.203C255.46 176.568 251.71 176.054 247.083 176.054C242.457 176.054 238.706 176.568 238.706 177.203C238.706 177.838 242.457 178.353 247.083 178.353Z" fill="#FF8000"></path>
<path opacity="0.1" d="M297.726 191.7C301.015 191.7 303.681 191.333 303.681 190.88C303.681 190.428 301.015 190.061 297.726 190.061C294.437 190.061 291.77 190.428 291.77 190.88C291.77 191.333 294.437 191.7 297.726 191.7Z" fill="#FF8000"></path>
<path opacity="0.1" d="M264.421 190.88C267.71 190.88 270.376 190.513 270.376 190.061C270.376 189.608 267.71 189.241 264.421 189.241C261.132 189.241 258.465 189.608 258.465 190.061C258.465 190.513 261.132 190.88 264.421 190.88Z" fill="#FF8000"></path>
<path d="M284.702 181.349C284.702 181.349 296.454 142.809 282.864 127.373C272.714 115.825 261.159 117.218 255.993 118.636C254.656 118.992 253.412 119.635 252.348 120.52C251.284 121.405 250.425 122.511 249.831 123.761C248.018 127.66 248.352 133.989 261.104 141.377C282.458 153.748 283.788 170.718 283.788 170.718L284.702 181.349Z" fill="#FF8000"></path>
<path d="M257.831 124.102C257.831 124.102 292.47 134.939 284.702 181.349" stroke="#565987" stroke-miterlimit="10"></path>
<path d="M278.057 127.986C278.057 127.986 273.287 131.203 274.795 136.034" stroke="#565987" stroke-miterlimit="10"></path>
<path d="M261.307 130.848C261.307 130.848 264.207 127.881 267.77 129.517" stroke="#565987" stroke-miterlimit="10"></path>
<path d="M274.998 145.773C274.998 145.773 280.116 143.176 281.439 146.429" stroke="#565987" stroke-miterlimit="10"></path>
<path d="M287.667 151.191C287.667 151.191 283.821 150.887 283.752 152.725" stroke="#565987" stroke-miterlimit="10"></path>
<path d="M285.177 181.657C285.177 181.657 271.402 153.647 267.636 154.26C265.824 154.55 265.012 156.32 264.638 158.093C264.174 160.389 264.437 162.772 265.389 164.912C267.342 169.395 272.588 177.907 285.177 181.657Z" fill="#FF8000"></path>
<path d="M267.738 159.577C267.738 159.577 282.182 180.533 284.974 181.454" stroke="#565987" stroke-miterlimit="10"></path>
<path d="M266.411 162.848H269.782" stroke="#565987" stroke-miterlimit="10"></path>
<path d="M270.449 170.515L275.734 170.74" stroke="#565987" stroke-miterlimit="10"></path>
<path d="M273.664 164.382L273.091 167.135" stroke="#565987" stroke-miterlimit="10"></path>
<path d="M279.283 172.764L279.181 175.267" stroke="#565987" stroke-miterlimit="10"></path>
<path d="M284.771 181.657C284.771 181.657 298.545 153.647 302.311 154.26C304.124 154.55 304.936 156.32 305.309 158.093C305.773 160.389 305.511 162.772 304.559 164.912C302.605 169.395 297.36 177.907 284.771 181.657Z" fill="#FF8000"></path>
<path d="M302.21 159.577C302.21 159.577 287.765 180.533 284.974 181.454" stroke="#565987" stroke-miterlimit="10"></path>
<path d="M303.536 162.848H300.165" stroke="#565987" stroke-miterlimit="10"></path>
<path d="M299.498 170.515L294.213 170.74" stroke="#565987" stroke-miterlimit="10"></path>
<path d="M296.283 164.382L296.856 167.135" stroke="#565987" stroke-miterlimit="10"></path>
<path d="M290.661 172.764L290.766 175.267" stroke="#565987" stroke-miterlimit="10"></path>
<path d="M261.14 188.2C260.767 187.894 260.494 187.482 260.357 187.018C260.297 186.784 260.318 186.537 260.418 186.317C260.517 186.097 260.689 185.918 260.905 185.81C261.409 185.618 261.945 185.966 262.355 186.321C262.764 186.677 263.228 187.072 263.761 187C263.487 186.751 263.283 186.435 263.167 186.084C263.052 185.732 263.029 185.357 263.101 184.994C263.124 184.843 263.186 184.702 263.283 184.584C263.562 184.287 264.069 184.417 264.403 184.649C265.465 185.4 265.762 186.844 265.769 188.142C265.821 187.66 265.821 187.174 265.769 186.691C265.749 186.451 265.787 186.21 265.881 185.988C265.975 185.766 266.122 185.57 266.309 185.418C266.561 185.28 266.845 185.213 267.132 185.222C267.369 185.189 267.611 185.205 267.841 185.271C268.072 185.336 268.286 185.45 268.47 185.603C268.872 186.038 268.767 186.767 268.415 187.246C268.02 187.685 267.553 188.052 267.034 188.334C266.637 188.569 266.299 188.892 266.045 189.277C266.016 189.331 265.992 189.387 265.972 189.444H262.978C262.312 189.114 261.694 188.696 261.14 188.2Z" fill="#FF8000"></path>
<path d="M313.581 176.917C313.206 176.612 312.932 176.199 312.798 175.734C312.738 175.501 312.759 175.255 312.859 175.036C312.958 174.816 313.13 174.638 313.345 174.53C313.849 174.338 314.386 174.686 314.795 175.038C315.205 175.39 315.672 175.792 316.205 175.716C315.93 175.468 315.725 175.153 315.608 174.801C315.492 174.45 315.469 174.074 315.542 173.711C315.564 173.56 315.628 173.42 315.727 173.304C316.006 173.007 316.51 173.134 316.843 173.37C317.905 174.117 318.203 175.546 318.21 176.862C318.263 176.38 318.263 175.894 318.21 175.412C318.189 175.171 318.227 174.93 318.322 174.708C318.416 174.486 318.563 174.291 318.75 174.139C319.003 174.004 319.286 173.938 319.573 173.946C319.809 173.909 320.05 173.922 320.28 173.985C320.511 174.047 320.725 174.158 320.91 174.309C321.316 174.741 321.211 175.47 320.856 175.948C320.463 176.395 319.996 176.771 319.475 177.058C319.078 177.293 318.739 177.616 318.485 178.001C318.455 178.054 318.431 178.11 318.413 178.168H315.419C314.753 177.835 314.135 177.414 313.581 176.917Z" fill="#FF8000"></path>
<path d="M296.102 188.2C295.728 187.894 295.455 187.482 295.319 187.018C295.258 186.784 295.28 186.537 295.379 186.317C295.479 186.097 295.651 185.918 295.866 185.81C296.37 185.618 296.907 185.966 297.316 186.321C297.726 186.677 298.19 187.072 298.723 187C298.449 186.751 298.244 186.435 298.127 186.084C298.011 185.733 297.988 185.357 298.059 184.994C298.084 184.844 298.148 184.702 298.244 184.584C298.523 184.287 299.031 184.417 299.364 184.649C300.426 185.4 300.724 186.844 300.731 188.142C300.789 187.661 300.795 187.174 300.749 186.691C300.728 186.451 300.767 186.21 300.861 185.988C300.955 185.766 301.102 185.57 301.289 185.418C301.541 185.28 301.825 185.213 302.112 185.222C302.349 185.189 302.591 185.205 302.821 185.271C303.051 185.336 303.266 185.45 303.449 185.603C303.852 186.038 303.747 186.767 303.395 187.246C303 187.685 302.533 188.052 302.014 188.334C301.617 188.569 301.278 188.892 301.024 189.277C300.996 189.331 300.972 189.387 300.952 189.444H297.958C297.286 189.115 296.661 188.697 296.102 188.2Z" fill="#FF8000"></path>
<path d="M246.54 165.394C246.54 165.394 245.416 166.863 247.058 169.079C248.7 171.295 250.048 173.17 249.505 174.552C249.505 174.552 247.029 170.436 245.013 170.377C242.998 170.319 244.321 167.871 246.54 165.394Z" fill="#FF8000"></path>
<path opacity="0.1" d="M246.54 165.394C246.44 165.536 246.362 165.691 246.308 165.855C244.343 168.165 243.295 170.323 245.184 170.377C246.946 170.428 249.059 173.576 249.563 174.367C249.563 174.429 249.526 174.49 249.505 174.548C249.505 174.548 247.029 170.432 245.013 170.374C242.998 170.316 244.321 167.871 246.54 165.394Z" fill="black"></path>
<path d="M244.452 167.266C244.452 167.784 244.51 168.201 244.582 168.201C244.655 168.201 244.709 167.784 244.709 167.266C244.709 166.747 244.637 166.994 244.568 166.994C244.499 166.994 244.452 166.751 244.452 167.266Z" fill="#FFD037"></path>
<path d="M243.734 167.882C244.187 168.132 244.586 168.281 244.618 168.219C244.651 168.158 244.314 167.904 243.861 167.657C243.408 167.411 243.585 167.588 243.549 167.657C243.513 167.726 243.281 167.636 243.734 167.882Z" fill="#FFD037"></path>
<path d="M252.466 165.394C252.466 165.394 253.59 166.863 251.948 169.079C250.306 171.295 248.957 173.17 249.505 174.552C249.505 174.552 251.977 170.436 253.992 170.377C256.008 170.319 254.685 167.871 252.466 165.394Z" fill="#FF8000"></path>
<path opacity="0.1" d="M252.466 165.394C252.565 165.536 252.644 165.691 252.698 165.855C254.663 168.165 255.71 170.323 253.822 170.377C252.06 170.428 249.947 173.576 249.443 174.367C249.46 174.429 249.48 174.489 249.505 174.548C249.505 174.548 251.977 170.432 253.992 170.374C256.008 170.316 254.684 167.871 252.466 165.394Z" fill="black"></path>
<path d="M254.554 167.266C254.554 167.784 254.496 168.201 254.423 168.201C254.351 168.201 254.297 167.784 254.297 167.266C254.297 166.747 254.369 166.994 254.438 166.994C254.507 166.994 254.554 166.751 254.554 167.266Z" fill="#FFD037"></path>
<path d="M255.272 167.882C254.819 168.132 254.42 168.281 254.387 168.219C254.355 168.158 254.692 167.904 255.145 167.657C255.598 167.411 255.42 167.588 255.457 167.657C255.493 167.726 255.725 167.636 255.272 167.882Z" fill="#FFD037"></path>
<path d="M254.195 174.36C254.195 174.36 251.06 174.266 250.114 173.591C249.168 172.916 245.285 172.111 245.039 173.192C244.792 174.273 240.327 178.567 243.864 178.596C247.402 178.625 252.1 178.045 253.043 177.468C253.985 176.891 254.195 174.36 254.195 174.36Z" fill="#A8A8A8"></path>
<path opacity="0.2" d="M243.814 178.219C247.355 178.248 252.046 177.668 252.992 177.091C253.717 176.656 253.996 175.082 254.079 174.356H254.181C254.181 174.356 253.985 176.895 253.039 177.464C252.093 178.034 247.406 178.621 243.861 178.592C242.839 178.592 242.487 178.23 242.505 177.682C242.661 178.012 243.052 178.215 243.814 178.219Z" fill="black"></path>
<path opacity="0.1" d="M46.7568 29.795C51.087 29.795 54.5973 26.2827 54.5973 21.95C54.5973 17.6174 51.087 14.105 46.7568 14.105C42.4266 14.105 38.9163 17.6174 38.9163 21.95C38.9163 26.2827 42.4266 29.795 46.7568 29.795Z" fill="#FF8000"></path>
<path opacity="0.1" d="M182.365 17.4128C186.696 17.4128 190.206 13.9004 190.206 9.56777C190.206 5.2351 186.696 1.72278 182.365 1.72278C178.035 1.72278 174.525 5.2351 174.525 9.56777C174.525 13.9004 178.035 17.4128 182.365 17.4128Z" fill="#FF8000"></path>
<path opacity="0.1" d="M306.752 48.4047C311.082 48.4047 314.592 44.8923 314.592 40.5597C314.592 36.227 311.082 32.7147 306.752 32.7147C302.421 32.7147 298.911 36.227 298.911 40.5597C298.911 44.8923 302.421 48.4047 306.752 48.4047Z" fill="#FF8000"></path>
<path opacity="0.1" d="M13.14 107.03C20.3971 107.03 26.2801 101.144 26.2801 93.8825C26.2801 86.6213 20.3971 80.7349 13.14 80.7349C5.88299 80.7349 0 86.6213 0 93.8825C0 101.144 5.88299 107.03 13.14 107.03Z" fill="#FF8000"></path>
<path opacity="0.1" d="M25.7363 171.952C32.9934 171.952 38.8764 166.065 38.8764 158.804C38.8764 151.543 32.9934 145.656 25.7363 145.656C18.4793 145.656 12.5963 151.543 12.5963 158.804C12.5963 166.065 18.4793 171.952 25.7363 171.952Z" fill="#FF8000"></path>
<path opacity="0.1" d="M271.834 114.686C279.091 114.686 284.974 108.8 284.974 101.539C284.974 94.2776 279.091 88.3913 271.834 88.3913C264.577 88.3913 258.694 94.2776 258.694 101.539C258.694 108.8 264.577 114.686 271.834 114.686Z" fill="#FF8000"></path>
<path d="M163.176 126.158C162.712 126.202 162.24 126.18 161.78 126.253C161.007 126.406 160.27 126.703 159.605 127.127C156.306 129.005 153.193 131.588 151.826 135.128C151.714 135.345 151.678 135.594 151.725 135.835C151.806 136.033 151.938 136.206 152.109 136.335L153.392 137.503C153.554 137.672 153.748 137.807 153.961 137.902C154.307 137.993 154.672 137.981 155.012 137.87C158.539 137.061 162.287 136.129 164.763 133.488C165.938 132.237 167.021 130.514 168.751 130.467C169.476 130.467 170.153 130.746 170.867 130.83C171.582 130.913 172.441 130.608 172.611 129.912C172.666 129.566 172.626 129.211 172.495 128.886L171.429 125.335C171.139 124.363 168.214 124.312 167.239 124.486C165.753 124.744 164.752 126.013 163.176 126.158Z" fill="#65617D"></path>
<path d="M175.732 146.161C175.681 147.376 175.779 148.605 175.58 149.809C175.404 150.759 175.101 151.68 174.677 152.548C174.025 153.943 173.197 155.248 172.212 156.432C171.295 157.52 170.197 158.543 168.838 158.971C167.478 159.399 165.807 159.091 164.959 157.944C164.267 157.012 164.234 155.768 164.285 154.604C164.408 151.742 164.857 148.841 166.141 146.28C166.692 145.192 167.391 144.155 167.953 143.056C169.128 140.775 169.798 138.069 171.824 136.495C173.096 137.083 174.455 137.456 175.848 137.601C176.388 137.659 177.932 137.695 178.114 138.388C178.237 138.856 177.222 140.165 177.026 140.626C176.252 142.374 175.813 144.251 175.732 146.161Z" fill="#65617D"></path>
<path d="M161.363 93.8534C161.798 94.9632 162.349 96.0513 162.451 97.2337C162.523 97.959 162.451 98.6844 162.451 99.4098C162.512 100.404 162.677 101.388 162.944 102.348L164.963 110.617C165.264 111.854 165.564 113.123 165.409 114.385C165.303 115.227 164.999 116.043 165.003 116.888C165.041 117.529 165.143 118.164 165.307 118.785C165.689 120.702 165.585 122.685 165.003 124.552C164.943 124.692 164.922 124.846 164.941 124.998C164.992 125.233 165.22 125.378 165.427 125.491C167.6 126.681 169.97 127.471 172.423 127.823C174.636 122.554 176.183 117.028 177.026 111.375C177.541 107.951 177.791 104.484 178.451 101.085C178.466 100.889 178.549 100.704 178.686 100.563C178.933 100.356 179.306 100.487 179.596 100.625C183.3 102.407 186.864 104.468 190.257 106.791C191.45 105.245 192.288 103.456 192.714 101.55C193.139 99.6439 193.141 97.6677 192.718 95.7611C192.292 94.1173 191.684 92.5262 190.906 91.0172C190.076 89.1816 189.043 87.4454 187.824 85.8416C185.135 82.4685 181.191 80.3142 177.131 78.8525C174.663 77.9603 172.122 77.3002 169.584 76.6256C168.163 76.2448 165.782 75.0044 164.401 75.9691C162.951 76.9738 161.987 79.4655 161.392 81.0468C160.658 83.0082 160.259 85.0789 160.211 87.1726C160.151 89.4538 160.543 91.7243 161.363 93.8534Z" fill="#3F3D56"></path>
<path d="M190.503 103.824C189.746 104.651 190.384 105.971 190.239 107.088C190.144 107.592 189.964 108.077 189.706 108.521L186.237 115.336C185.657 116.358 185.223 117.457 184.946 118.6C184.472 121.059 185.447 123.823 184.2 125.995C183.797 126.695 183.174 127.297 183.007 128.088C182.884 128.664 183.007 129.266 182.945 129.85C182.862 130.536 182.496 131.152 182.293 131.813C182.135 132.447 182.022 133.092 181.956 133.742C181.516 136.516 180.065 139.028 177.882 140.793C176.631 141.853 175.025 142.4 173.387 142.323C171.77 142.186 170.164 141.087 169.834 139.498C169.722 138.958 169.744 138.356 169.407 137.917C168.928 137.289 167.921 137.264 167.46 136.622L169.244 133.684C169.798 132.774 170.364 131.823 170.454 130.761C170.563 129.459 169.936 128.16 170.161 126.873C170.353 125.767 171.147 124.845 171.386 123.75C171.683 122.39 171.089 121.015 170.766 119.659C169.976 116.318 170.86 112.837 171.741 109.503C172.912 105.093 174.112 100.614 176.482 96.715C181.213 99.2647 185.563 101.713 190.503 103.824Z" fill="#3F3D56"></path>
<path d="M190.547 34.7385C190.829 35.5074 190.677 36.3597 190.623 37.1757C190.496 38.9892 190.88 40.8026 190.793 42.6415C190.706 44.4803 190.141 46.2357 189.749 48.0238C188.636 53.1269 188.905 58.4439 187.897 63.5687C186.654 69.9158 183.475 75.8277 182.848 82.2691C182.648 84.3146 182.674 86.5053 181.553 88.2317C174.898 85.3002 168.606 81.6024 162.806 77.2131C164.082 67.7433 165.343 58.2263 165.173 48.673C165.09 47.5214 165.171 46.3638 165.412 45.2347C165.714 44.2863 166.149 43.3852 166.702 42.5581C168.105 40.2767 169.649 38.0861 171.19 35.8991C172.176 34.4991 173.242 33.0302 174.815 32.3737C176.388 31.7172 178.251 32.011 179.966 32.3229C182.03 32.7001 184.091 33.0773 186.15 33.4545C187.437 33.6903 189.996 33.2405 190.547 34.7385Z" fill="#FF8000"></path>
<path d="M140.912 71.0257C140.066 70.1793 139.144 69.4131 138.157 68.7371C139.444 67.1703 139.19 64.9035 139.505 62.8978C139.764 61.595 140.156 60.3224 140.676 59.1004C140.807 58.7559 140.992 58.375 141.35 58.2844C141.571 58.2571 141.794 58.2923 141.996 58.3859C143.083 58.7704 145.352 58.7486 146.197 59.4522C147.215 60.3082 146.284 62.0999 145.9 63.1698C145.628 63.8879 141.452 71.5697 140.912 71.0257Z" fill="#BE6F72"></path>
<path d="M144.069 138.758C144.615 139.642 144.972 140.63 145.117 141.66C145.204 142.69 144.827 143.818 143.949 144.362C143.072 144.906 141.814 144.724 140.77 144.398C138.556 143.677 136.519 142.497 134.792 140.935C133.065 139.372 131.687 137.463 130.748 135.331C130.418 134.569 130.132 133.76 129.548 133.173C129.114 132.791 128.633 132.468 128.116 132.212C126.692 131.406 125.318 130.347 124.658 128.846C123.998 127.344 124.296 125.339 125.662 124.446C126.088 124.2 126.559 124.041 127.047 123.979C127.535 123.917 128.03 123.952 128.504 124.084C129.449 124.352 130.353 124.746 131.194 125.255C132.6 126.02 134.318 126.681 135.543 127.7C136.631 128.596 137.606 129.807 138.534 130.862C139.597 132.077 140.593 133.348 141.517 134.671C141.814 135.059 144.319 138.406 144.069 138.758Z" fill="#65617D"></path>
<path d="M117.499 131.145C117.376 132.97 117.054 134.776 116.538 136.531C116.245 137.518 115.857 138.544 115.041 139.172C114.351 139.619 113.57 139.905 112.754 140.009C112.47 140.087 112.172 140.105 111.88 140.064C111.38 139.959 111.025 139.527 110.717 139.117C109.506 137.514 108.328 135.82 107.817 133.876C107.092 131.058 107.817 128.037 109.075 125.404C109.527 124.342 110.186 123.382 111.014 122.578C112.037 121.737 113.266 121.185 114.574 120.979C115.911 120.711 117.553 120.138 117.651 121.766C117.794 124.893 117.743 128.025 117.499 131.145Z" fill="#65617D"></path>
<path d="M137.555 62.9739C140.056 64.2687 142.833 65.9154 143.355 68.6827C143.678 70.3728 143.058 72.1029 143.159 73.822C143.25 75.3344 143.884 76.7961 143.805 78.3049C143.72 79.0178 143.599 79.726 143.442 80.4266C143.228 81.7649 143.355 83.1286 143.301 84.4815C143.181 87.5281 142.162 90.4586 141.669 93.4653C141.321 95.6122 141.239 97.7941 141.427 99.9611C141.546 101.361 141.789 102.754 141.789 104.161C141.789 105.175 141.705 106.186 141.539 107.186C141.053 110.327 140.074 113.371 138.639 116.206C136.896 119.641 137.142 124.073 137.327 127.921C137.408 128.451 137.34 128.994 137.131 129.488C136.674 130.318 135.536 130.438 134.594 130.358C131.099 130.039 127.857 128.396 125.532 125.767C125.192 125.436 124.962 125.009 124.872 124.544C124.792 123.768 125.416 123.13 125.865 122.488C127.395 120.312 127.007 117.363 127.188 114.69C127.321 112.745 127.785 110.838 128.562 109.05C129.012 108.016 129.573 106.997 129.675 105.873C129.769 104.825 129.45 103.787 129.135 102.786L128.047 99.3337C126.362 93.9695 124.665 88.5726 122.114 83.5639C120.439 84.6538 119.241 86.339 118.761 88.2789C117.811 91.6954 119.163 95.5109 117.869 98.7969C117.655 99.2525 117.476 99.7242 117.336 100.208C117.26 100.625 117.231 101.05 117.249 101.474C117.283 105.009 117.498 108.54 117.894 112.053C117.914 112.585 118.063 113.105 118.329 113.566C118.543 113.874 118.855 114.102 119.083 114.396C119.717 115.22 119.598 116.373 119.446 117.399L118.721 122.252C118.708 122.498 118.626 122.736 118.485 122.938C118.314 123.103 118.101 123.219 117.869 123.271C115.565 123.987 113.137 124.209 110.742 123.924C110.036 123.841 109.394 123.366 108.803 122.967C108.741 122.241 109.644 121.759 109.677 121.037C109.642 120.609 109.443 120.212 109.122 119.927C107.774 118.404 106.164 116.786 106.179 114.752C106.179 114.218 106.306 113.685 106.287 113.152C106.24 111.785 105.298 110.613 104.968 109.297C104.562 107.668 105.102 105.978 105.309 104.313C105.591 102.072 105.258 99.8015 104.946 97.5637L103.732 89.3524C103.591 88.0779 103.339 86.8182 102.978 85.5877C102.521 84.3761 101.984 83.196 101.372 82.0551C100.212 79.6976 99.2589 77.2458 98.3092 74.8013C98.0074 74.1371 97.8176 73.4275 97.7474 72.7013C97.693 71.4573 98.3346 70.2821 99.132 69.3246C100.626 67.5453 102.664 66.3087 104.932 65.8066C105.311 65.7008 105.709 65.6846 106.095 65.7594C106.42 65.8672 106.725 66.0278 106.998 66.2345C109.8 68.0683 112.988 69.2279 116.313 69.6224C119.638 70.017 123.009 69.6357 126.162 68.5086C126.525 68.7842 127.196 68.6645 127.612 68.4687C128.776 67.9355 129.726 67.047 130.748 66.2926C132.651 64.849 135.217 63.4781 137.555 62.9739Z" fill="#3F3D56"></path>
<path d="M62.4233 156.117C62.6158 156.672 62.9055 157.189 63.2788 157.643C64.591 159.355 66.4215 160.723 67.2661 162.721C67.4437 163.149 67.5742 163.599 67.7373 164.034C68.2334 165.348 69.0422 166.52 70.0935 167.451C70.8954 168.117 71.7668 168.694 72.6925 169.173C74.2947 170.047 76.0273 170.838 77.847 170.791C78.2129 170.783 78.5771 170.739 78.9345 170.66C79.5009 170.543 80.0468 170.342 80.5548 170.066C81.7256 169.42 82.7297 168.158 82.4977 166.841C82.4509 166.59 82.3717 166.346 82.2621 166.116C82.0698 165.749 81.8479 165.398 81.5987 165.068C80.9861 164.219 80.3554 163.349 79.4601 162.805C78.4524 162.188 77.1837 162.036 76.2775 161.274C75.9199 160.95 75.611 160.576 75.3604 160.164C74.539 158.901 73.927 157.513 73.548 156.055C73.2725 154.967 73.0876 153.774 72.2938 152.976C71.4999 152.178 70.4089 151.996 69.3504 151.815C68.9927 151.741 68.6281 151.706 68.2629 151.71C67.7446 151.728 67.2081 151.877 66.7224 151.634C66.2367 151.391 66.0735 151.046 65.4863 151.093C65.0189 151.156 64.5783 151.348 64.214 151.648C62.8366 152.667 61.9231 154.481 62.4233 156.117Z" fill="#3F3D56"></path>
<path d="M75.3023 157.767C75.5379 158.996 75.9004 160.306 76.8501 161.107C77.4555 161.629 78.3001 161.956 78.6009 162.692C78.9018 163.428 78.5139 164.353 78.0137 165.028C77.375 165.881 76.5834 166.608 75.6793 167.171C74.9108 167.646 73.9938 168.009 73.1129 167.799C72.388 167.628 71.8152 167.106 71.2751 166.602C70.0354 165.452 68.7668 164.259 68.0708 162.717C67.3458 161.093 67.3096 159.21 66.5194 157.611C66.059 156.679 65.3485 155.863 65.0694 154.862C64.9443 154.5 64.9443 154.106 65.0694 153.745C65.2046 153.486 65.4091 153.269 65.66 153.12C65.911 152.971 66.1985 152.895 66.4904 152.899C67.074 152.919 67.6496 153.042 68.1904 153.262C69.8269 153.846 71.502 154.315 73.2035 154.666C73.8814 154.793 74.291 154.789 74.6535 155.446C74.9884 156.181 75.2072 156.964 75.3023 157.767Z" fill="#FBBEBE"></path>
<path d="M79.5072 168.162C79.2385 168.573 79.048 169.03 78.9453 169.511C78.8598 169.884 78.8462 170.271 78.9055 170.65C79.4718 170.532 80.0178 170.332 80.5258 170.055C81.6966 169.409 82.7007 168.147 82.4687 166.83C82.4218 166.579 82.3426 166.336 82.233 166.105C82.0601 166.066 81.8799 166.074 81.7107 166.126C81.5415 166.179 81.3891 166.276 81.2688 166.406C80.5939 166.896 79.9995 167.488 79.5072 168.162Z" fill="#FBBEBE"></path>
<path d="M66.5158 140.604C66.3581 140.944 66.3112 141.324 66.3817 141.692C66.5484 142.418 67.2915 142.835 67.9621 143.165L74.3382 146.284C74.7805 146.489 75.2113 146.718 75.6286 146.969C76.7161 147.637 77.5715 148.58 78.4995 149.443C79.4274 150.306 80.4605 151.115 81.6893 151.42C82.916 151.689 84.1981 151.521 85.3142 150.944C85.9156 150.645 86.474 150.265 86.9744 149.817C87.4075 149.436 87.8076 149.02 88.1705 148.573C88.4823 148.243 88.7055 147.84 88.8194 147.401C88.939 146.737 88.6091 146.084 88.2249 145.537C88.0037 145.221 87.7615 144.921 87.4999 144.637C85.0822 141.964 81.1202 140.579 77.7129 140.035C76.3572 139.817 75.0704 139.309 73.7655 138.896C72.4605 138.482 71.0795 138.171 69.7238 138.363C68.3681 138.555 67.0341 139.335 66.5158 140.604Z" fill="#3F3D56"></path>
<path opacity="0.1" d="M66.5158 140.604C66.3581 140.944 66.3112 141.324 66.3817 141.692C66.5484 142.418 67.2915 142.835 67.9621 143.165L74.3382 146.284C74.7805 146.489 75.2113 146.718 75.6286 146.969C76.7161 147.637 77.5715 148.58 78.4995 149.443C79.4274 150.306 80.4605 151.115 81.6893 151.42C82.916 151.689 84.1981 151.521 85.3142 150.944C85.9156 150.645 86.474 150.265 86.9744 149.817C87.4075 149.436 87.8076 149.02 88.1705 148.573C88.4823 148.243 88.7055 147.84 88.8194 147.401C88.939 146.737 88.6091 146.084 88.2249 145.537C88.0037 145.221 87.7615 144.921 87.4999 144.637C85.0822 141.964 81.1202 140.579 77.7129 140.035C76.3572 139.817 75.0704 139.309 73.7655 138.896C72.4605 138.482 71.0795 138.171 69.7238 138.363C68.3681 138.555 67.0341 139.335 66.5158 140.604Z" fill="black"></path>
<path d="M82.4723 142.595C82.9625 143.146 83.3659 143.769 83.6685 144.441C83.9407 144.882 84.0378 145.409 83.9404 145.918C83.7978 146.26 83.5693 146.56 83.277 146.788L82.6427 147.376C82.4511 147.575 82.2282 147.742 81.9829 147.869C81.6359 147.999 81.2654 148.055 80.8955 148.032C80.0436 148.032 79.1266 148.032 78.4342 147.521C77.4881 146.839 77.3178 145.428 77.7491 144.344C78.1805 143.259 79.0831 142.439 79.9929 141.707C80.7324 141.108 81.9539 142.048 82.4723 142.595Z" fill="#FBBEBE"></path>
<path d="M86.3436 146.346C86.2262 146.947 86.2828 147.57 86.5067 148.141C86.6662 148.685 86.822 149.229 86.9779 149.784C86.9779 149.784 86.9779 149.784 86.9779 149.806C87.411 149.426 87.8112 149.009 88.1741 148.562C88.4859 148.232 88.7091 147.829 88.823 147.39C88.9426 146.726 88.6127 146.074 88.2285 145.526C88.0072 145.21 87.765 144.91 87.5035 144.626C87.3332 144.848 87.1845 145.065 87.0613 145.207C86.7441 145.531 86.4994 145.919 86.3436 146.346Z" fill="#FBBEBE"></path>
<path d="M69.6874 119.314C68.9371 122.47 69.2561 125.77 69.6548 128.991C69.9593 131.443 70.3 133.981 69.575 136.343C69.3068 137.224 68.8827 138.12 69.0458 139.03C69.3539 140.746 71.4201 141.406 73.131 141.729C73.6246 141.854 74.1375 141.885 74.6426 141.819C75.1492 141.681 75.6194 141.434 76.02 141.094C78.452 139.325 80.299 136.868 81.3231 134.04C81.972 132.146 82.1786 130.133 82.378 128.142C82.7114 124.791 83.0486 121.4 82.5592 118.07C82.4142 117.091 82.1967 116.123 82.1061 115.136C81.992 113.42 82.0869 111.697 82.3888 110.004C83.013 105.81 83.9582 101.671 85.2162 97.6217C81.7645 98.0803 78.2559 97.4462 75.1827 95.8083C75.7771 96.1275 75.0957 101.216 75.0232 101.931C74.8032 104.061 74.4191 106.17 73.8741 108.241C72.8628 112.111 70.6045 115.47 69.6874 119.314Z" fill="#3F3D56"></path>
<path opacity="0.1" d="M69.6874 119.314C68.9371 122.47 69.2561 125.77 69.6548 128.991C69.9593 131.443 70.3 133.981 69.575 136.343C69.3068 137.224 68.8827 138.12 69.0458 139.03C69.3539 140.746 71.4201 141.406 73.131 141.729C73.6246 141.854 74.1375 141.885 74.6426 141.819C75.1492 141.681 75.6194 141.434 76.02 141.094C78.452 139.325 80.299 136.868 81.3231 134.04C81.972 132.146 82.1786 130.133 82.378 128.142C82.7114 124.791 83.0486 121.4 82.5592 118.07C82.4142 117.091 82.1967 116.123 82.1061 115.136C81.992 113.42 82.0869 111.697 82.3888 110.004C83.013 105.81 83.9582 101.671 85.2162 97.6217C81.7645 98.0803 78.2559 97.4462 75.1827 95.8083C75.7771 96.1275 75.0957 101.216 75.0232 101.931C74.8032 104.061 74.4191 106.17 73.8741 108.241C72.8628 112.111 70.6045 115.47 69.6874 119.314Z" fill="black"></path>
<path d="M88.5076 100.824C89.9576 105.028 89.6386 109.62 89.0115 114.023C88.3844 118.426 87.4601 122.829 87.7319 127.264C87.8371 129.005 88.1198 130.793 87.6123 132.458C87.3303 133.27 86.957 134.048 86.4995 134.776L74.9326 154.789C74.6377 155.308 74.2182 155.746 73.712 156.063C73.2057 156.379 72.6286 156.565 72.0328 156.603C70.7967 156.69 69.5824 156.283 68.4297 155.83C67.6638 155.576 66.952 155.181 66.3309 154.666C66.023 154.409 65.7818 154.082 65.6278 153.712C65.4738 153.342 65.4116 152.94 65.4464 152.54C65.9648 149.066 66.7441 145.508 67.3205 142.022C67.7125 139.657 68.5674 137.393 69.8361 135.36C70.7315 133.909 71.8334 132.607 72.6055 131.098C74.8239 126.775 74.0554 121.501 72.3445 116.953C70.6336 112.405 68.0853 108.183 66.726 103.534C66.323 102.24 66.0927 100.898 66.0409 99.544C66.0242 98.1455 66.2832 96.7575 66.8032 95.4593C67.3232 94.161 68.0939 92.9782 69.0713 91.9783C69.3565 91.6551 69.716 91.4061 70.1189 91.2529C70.5898 91.1436 71.0803 91.1524 71.5471 91.2783C77.9884 92.5296 86.3799 94.6151 88.5076 100.824Z" fill="#3F3D56"></path>
<path d="M192.479 38.068C192.689 39.6566 192.116 41.2633 191.301 42.6379C188.216 47.7881 181.104 50.0658 175.605 47.6684C173.34 46.6783 171.422 45.0462 169.544 43.4358C168.914 42.8918 168.258 42.3224 167.939 41.5535C167.377 40.1934 168.055 38.5721 169.16 37.6001C170.266 36.6281 171.698 36.1494 173.122 35.7178C177.824 34.2525 191.359 29.6318 192.479 38.068Z" fill="#FBBEBE"></path>
<path d="M189.728 33.0266C194.008 36.4721 200.24 39.7545 205.09 42.3078C206.739 43.1783 208.569 44.1575 209.164 45.9347C209.483 46.885 209.378 47.9186 209.273 48.9197C209.07 50.8456 208.859 52.8005 208.116 54.5885C207.243 56.6813 205.699 58.4077 204.459 60.3082C202.284 63.6377 201.008 67.562 198.322 70.5034C200.134 76.5277 202.117 82.5447 202.762 88.7975C202.798 88.9695 202.779 89.1483 202.708 89.3089C202.634 89.4145 202.537 89.5024 202.425 89.5664L197.916 92.526C197.424 92.813 196.984 93.1809 196.615 93.614C195.817 94.6513 195.922 96.1093 195.429 97.3171C195.159 97.9066 194.773 98.4354 194.293 98.8717C193.813 99.308 193.25 99.6428 192.638 99.8559C191.406 100.281 190.093 100.42 188.8 100.262C187.153 100.158 185.567 99.5997 184.218 98.6482C183.069 97.7777 182.249 96.5554 181.459 95.3513C180.874 94.53 180.387 93.6426 180.009 92.7073C179.527 91.3726 179.498 89.9182 179.516 88.4965C179.528 85.791 179.787 83.0923 180.288 80.4338C180.499 79.3784 180.76 78.3375 180.926 77.2748C181.26 75.1349 181.195 72.9515 181.441 70.8008C181.778 68.3817 182.317 65.9952 183.054 63.6667C183.457 62.2244 183.772 60.7588 183.997 59.2781C184.421 56.674 185.265 54.1605 186.11 51.6616L187.56 47.3782C187.868 46.4534 188.18 45.5321 188.546 44.629C189.227 42.9425 190.105 41.2995 190.337 39.5006C190.594 37.5384 188.477 35.21 189.191 33.3675C189.249 33.1644 189.564 32.896 189.728 33.0266Z" fill="#3F3D56"></path>
<path d="M208.004 44.9229C209.008 45.3762 209.563 46.457 209.921 47.5016C210.73 49.8557 210.925 52.3775 210.487 54.8279C210.345 55.4439 210.248 56.0694 210.197 56.6994C210.204 57.4297 210.276 58.1578 210.411 58.8756C210.773 61.6501 210.411 64.4682 210.53 67.2682C210.654 70.4164 211.339 73.7422 210.019 76.6039C209.142 78.5044 207.482 79.9189 205.844 81.2028C199.744 85.9596 193.013 89.846 185.845 92.7509C187.081 91.2638 187.103 89.026 186.28 87.2742C185.457 85.5224 183.928 84.2059 182.293 83.1831C184.374 82.7203 186.389 82.0003 188.292 81.0396C192.091 79.1101 195.346 76.2847 198.561 73.4884C199.036 73.1471 199.405 72.6797 199.627 72.1392C199.953 71.0511 199.054 70.0174 198.431 69.0635C196.542 66.162 196.981 62.3719 197.771 59.0134C198.652 55.3321 199.946 51.6653 202.306 48.7057C203.777 46.856 205.699 45.4342 208.004 44.9229Z" fill="#3F3D56"></path>
<path d="M185.526 92.8415C185.201 93.3729 184.778 93.838 184.279 94.2125C183.192 94.9379 181.699 94.6622 180.484 94.1472C179.356 93.6683 178.315 93.0052 177.403 92.185C177.011 91.7682 176.549 91.4244 176.037 91.1695C175.087 90.8068 173.76 91.0788 173.227 90.2047C173.165 90.1129 173.135 90.0035 173.14 89.8928C173.173 89.5773 173.586 89.4902 173.905 89.4721C175.385 89.3742 176.821 88.9308 178.099 88.1773C177.691 87.8822 177.342 87.5131 177.07 87.0892C176.957 86.9413 176.896 86.7603 176.896 86.5742C176.94 86.372 177.051 86.1905 177.211 86.0592C178.376 84.959 179.842 84.2307 181.423 83.9672C183.003 83.7036 184.626 83.9168 186.085 84.5794C186.369 84.6947 186.619 84.8822 186.81 85.1235C186.944 85.3459 187.034 85.5922 187.074 85.8488C187.31 86.8644 188.162 88.3877 187.854 89.4141C187.513 90.5928 186.226 91.8441 185.526 92.8415Z" fill="#FBBEBE"></path>
<path d="M160.809 88.268C165.318 83.0561 167.333 76.1977 169.204 69.5641L170.541 64.8491L173.767 53.4932C174.242 51.8176 174.717 50.142 175.032 48.4337C175.573 45.485 175.623 42.4711 175.591 39.4753C175.545 38.2333 175.26 37.0119 174.753 35.8774C174.438 35.094 174.286 34.2598 174.028 33.451C173.701 32.3234 173.211 31.2495 172.575 30.2629C172.398 29.9696 172.176 29.7054 171.919 29.4795C171.473 29.1762 170.967 28.971 170.436 28.8774C169.284 28.5346 168.09 28.3527 166.887 28.337C165.684 28.3806 164.444 28.7977 163.669 29.7116C163.078 30.4116 162.806 31.3184 162.338 32.1054C162.121 32.4276 161.923 32.7632 161.747 33.11C161.548 33.637 161.438 34.1935 161.421 34.7567C161.233 37.0416 161.072 39.329 160.939 41.6188C160.877 42.6597 160.823 43.7079 160.863 44.7524C160.896 45.5648 160.983 46.3736 161.07 47.1824L161.929 55.1036C162.128 56.9642 161.987 58.7051 162.153 60.5693C162.559 65.0703 161.592 69.5713 160.598 73.9889C160.123 76.0889 159.634 78.2178 158.619 80.1183C157.724 81.8012 156.383 83.5095 156.738 85.3846C156.861 86.0375 157.191 86.6468 157.242 87.3069C157.217 87.7157 157.257 88.1258 157.361 88.5219C157.509 88.7913 157.739 89.0067 158.017 89.137C158.295 89.2674 158.608 89.306 158.909 89.2473C159.627 89.1212 160.289 88.7796 160.809 88.268Z" fill="#3F3D56"></path>
<path d="M161.36 67.4097C161.497 68.4506 161.392 69.506 161.443 70.5542C161.557 71.9042 161.799 73.2401 162.168 74.5438C162.53 75.9945 162.994 77.6194 164.274 78.4246C164.595 78.5914 164.902 78.7843 165.191 79.0012C165.334 79.1137 165.438 79.2671 165.491 79.4407C165.545 79.6144 165.543 79.8002 165.488 79.9732L164.491 79.8064C164.605 79.8929 164.698 80.0024 164.766 80.1276C164.834 80.2528 164.875 80.3909 164.886 80.5329C164.896 80.675 164.877 80.8177 164.829 80.9518C164.781 81.0859 164.705 81.2083 164.607 81.3111C164.508 81.4138 164.389 81.4946 164.257 81.5481C164.125 81.6016 163.983 81.6266 163.841 81.6216C163.699 81.6165 163.559 81.5814 163.431 81.5186C163.304 81.4558 163.19 81.3667 163.099 81.2572C163.137 81.584 163.106 81.915 163.009 82.2292C162.958 82.3833 162.862 82.5182 162.732 82.6155C162.602 82.7128 162.446 82.7679 162.284 82.7732C162.096 82.744 161.918 82.6693 161.766 82.5556L159.163 80.9416C158.383 80.5216 157.734 79.894 157.289 79.1282L156.151 77.4127C155.9 77.082 155.701 76.7151 155.56 76.3246C155.136 74.8738 156.321 73.2635 155.705 71.8961C155.52 71.5592 155.302 71.2409 155.056 70.9459C153.74 69.1324 153.824 66.6661 153.968 64.4175C154.016 63.6594 154.153 62.76 154.838 62.4299C155.382 62.1652 156.035 62.4009 156.539 62.7309C157.042 63.061 157.488 63.4962 158.061 63.6921C158.423 63.8154 158.822 63.8299 159.185 63.9605C159.692 64.1382 160.163 64.8309 160.504 65.2408C160.986 65.8697 161.282 66.621 161.36 67.4097Z" fill="#FBBEBE"></path>
<path d="M129.595 34.8147C129.287 35.5218 128.855 36.168 128.319 36.7224C128.05 36.9995 127.719 37.2094 127.354 37.3354C126.989 37.4614 126.6 37.4999 126.217 37.4478C125.412 37.2882 124.821 36.6245 124.288 35.997C122.896 34.3613 121.486 32.7038 120.551 30.767C119.123 27.8184 118.895 24.4526 118.688 21.1848C118.637 20.3433 118.594 19.4511 118.996 18.7148C119.507 17.7755 120.591 17.333 121.592 16.9594L127.119 14.8921C127.458 14.7315 127.833 14.6627 128.207 14.6926C129.073 14.8377 129.392 15.8822 129.628 16.7273C130.049 18.2459 130.75 19.6726 131.694 20.9345C132.934 22.5884 135.714 24.8153 134.126 26.879C132.209 29.3525 130.991 32.0219 129.595 34.8147Z" fill="#BE6F72"></path>
<path d="M136.667 25.3775C139.089 27.6552 139.908 31.2023 139.792 34.5209C139.676 37.8395 138.755 41.0747 138.229 44.3534C137.704 47.6322 137.599 51.1321 139.023 54.1461C139.513 55.1797 140.18 56.1373 140.52 57.229C140.806 58.3079 140.903 59.4283 140.807 60.5403C140.801 61.7126 140.577 62.8736 140.147 63.9641C139.375 65.676 137.787 66.8656 136.268 67.9537C133.169 70.1951 130.008 72.4728 126.369 73.6443C123.904 74.4386 121.294 74.6997 118.713 74.8412C116.966 74.9805 115.209 74.9307 113.472 74.6925C110.434 74.1859 107.642 72.7071 105.515 70.478C105.145 70.1187 104.839 69.6978 104.613 69.234C104.391 68.6304 104.284 67.9908 104.297 67.348C104.21 64.9663 104.225 62.5847 104.341 60.203C104.407 57.9333 104.72 55.6774 105.272 53.4751C105.965 50.9363 107.165 48.557 108.074 46.0835C111.243 37.4841 110.924 27.6987 115.324 19.6687C116.274 17.9351 117.862 16.1107 119.819 16.3864C120.195 16.409 120.55 16.5721 120.812 16.8434C121.037 17.1735 121.163 17.5611 121.175 17.9604C121.642 21.863 122.306 25.8671 124.143 29.3888C124.868 30.7707 125.956 32.8743 127.627 33.2442C129.298 33.6142 130.284 32.0183 131.179 30.8867C132.752 28.8116 134.598 26.9585 136.667 25.3775Z" fill="#E3E8F4"></path>
<path d="M148.256 19.5055C148.75 19.7726 149.211 20.0963 149.63 20.4702C150.717 21.5003 151.116 23.078 151.108 24.5723C151.101 26.0665 150.746 27.5391 150.529 29.0188C149.945 33.0084 150.442 37.0923 150.674 41.1327C150.744 41.785 150.705 42.4446 150.558 43.084C150.38 43.6933 150.014 44.2301 149.778 44.8213C149.086 46.5694 149.608 48.5642 149.202 50.3995C148.767 52.3544 147.277 54.1315 147.556 56.1154C147.669 56.8916 148.042 57.6061 148.201 58.375C148.361 59.1439 148.223 60.0724 147.56 60.4859C146.896 60.8993 145.932 60.5983 145.142 60.8268C144.821 60.9454 144.509 61.0859 144.207 61.2475C142.985 61.7988 141.528 61.6102 140.325 61.0081C139.145 60.364 138.085 59.5225 137.189 58.5201C135.808 57.1056 134.471 55.5569 133.865 53.6745C132.981 50.9471 133.767 47.9767 134.728 45.271C135.688 42.5653 136.834 39.8306 136.664 36.9545C136.569 35.3442 136.062 33.7955 135.757 32.2142C135.38 30.0232 135.245 27.7974 135.355 25.5769C135.402 23.9521 135.511 22.2764 136.21 20.8075C136.709 19.8277 137.446 18.9888 138.353 18.3678C139.26 17.7468 140.308 17.3635 141.401 17.2532C143.939 16.9775 146.113 18.2723 148.256 19.5055Z" fill="#3F3D56"></path>
<path opacity="0.1" d="M141.401 54.5631C141.427 55.7237 141.635 56.873 142.017 57.9688C142.666 56.489 142.742 54.8279 142.829 53.2175C143.192 47.672 144.421 42.442 145.729 37.0706C144.776 37.7959 144.239 39.6094 143.783 40.6975C141.97 45.0852 141.157 49.8217 141.401 54.5631Z" fill="black"></path>
<path d="M116.966 15.9221C115.219 16.3827 113.704 17.42 112.011 18.0982C110.253 18.8236 108.361 19.1319 106.516 19.578C102.246 20.6153 97.9576 22.5412 95.3803 26.1065C93.4809 28.7287 92.6943 31.9675 91.393 34.938C90.3055 37.4296 88.8556 39.7654 88.0545 42.3586C87.0069 45.7425 87.1266 49.3694 87.3839 52.902C87.5942 55.8036 87.9132 58.7377 89.229 61.3092C89.9177 62.6584 90.8674 63.8662 91.5561 65.2154C92.3826 66.8366 92.8175 68.6247 93.5063 70.293C94.195 71.9614 95.2063 73.6298 96.8049 74.5003L99.451 72.9516C103.398 70.6412 107.346 68.3273 111.17 65.8174C114.505 63.6413 117.869 61.1424 119.645 57.5662C121.218 54.4072 121.374 50.715 120.968 47.2078C120.562 43.7006 119.634 40.2695 119.156 36.7732C118.546 32.3726 118.638 27.9032 119.427 23.5313C119.79 21.5583 120.754 19.52 120.954 17.5542C121.175 15.4542 118.478 15.5231 116.966 15.9221Z" fill="#3F3D56"></path>
<path d="M100.607 73.579C102.634 75.4976 105.548 76.0562 108.082 77.2059C109.964 78.0805 111.659 79.3122 113.073 80.8328C113.852 81.6888 114.606 82.853 114.215 83.9411C113.885 84.8768 112.874 85.3556 111.946 85.7037C110.793 86.139 109.506 86.5234 108.357 86.0846C107.683 85.8271 107.139 85.312 106.519 84.9457C105.001 84.0426 103.087 84.039 101.528 83.2048C99.3314 82.0297 98.2367 79.4437 96.1705 78.0473C95.0396 77.2857 93.4773 76.6619 93.3613 75.3018C93.356 74.8099 93.46 74.3231 93.6658 73.8764C94.0826 72.7666 94.7931 68.9547 96.3808 69.0563C98.1098 69.1687 99.3205 72.6614 100.607 73.579Z" fill="#FBBEBE"></path>
<path d="M89.9901 56.5797C90.6535 58.9662 92.194 61.0009 93.7926 62.8942C94.9417 64.2543 96.2031 65.734 96.243 67.5148C96.2792 69.1977 95.1555 70.7464 93.7056 71.606C92.2557 72.4656 90.5483 72.7412 88.87 72.85C87.5275 72.9794 86.1727 72.885 84.861 72.5707C81.5479 71.6713 79.2497 68.7806 76.6435 66.5465C75.0957 65.2226 73.3558 64.0693 72.1704 62.4118C70.9851 60.7543 70.4849 58.375 71.6521 56.703C72.0733 56.161 72.5603 55.6737 73.102 55.2523C75.0815 53.5349 76.7697 51.5078 78.1007 49.2497C78.6371 48.3394 79.1519 47.3529 80.0545 46.8052C81.3485 46.0182 83.0087 46.3772 84.4731 46.7617C86.0644 47.1788 90.5484 47.9948 90.8601 50.0259C90.987 50.8601 89.9539 52.1585 89.798 53.0544C89.5996 54.2292 89.6653 55.4335 89.9901 56.5797Z" fill="#FBBEBE"></path>
<path d="M98.1859 61.1279C98.6608 61.989 99.0516 62.8938 99.3531 63.8299C100.459 67.6744 98.4831 71.635 97.5407 75.5231C96.3372 80.5028 96.8483 85.711 96.7903 90.8358C96.765 93.1788 96.5149 95.7576 94.8293 97.3824C94.3943 97.7959 93.8724 98.1441 93.5787 98.6663C93.3973 99.049 93.2622 99.4521 93.1764 99.8668C92.919 100.763 92.4626 101.589 91.8411 102.284C91.2197 102.979 90.4494 103.524 89.5877 103.879C88.7261 104.234 87.7953 104.39 86.8651 104.334C85.9349 104.279 85.0292 104.014 84.2158 103.559C82.842 102.794 81.6494 101.466 80.0762 101.426C79.5816 101.45 79.0889 101.505 78.6009 101.59C77.035 101.746 75.5017 101.165 74.0336 100.596C73.6832 100.485 73.3563 100.311 73.0694 100.081C72.8048 99.8378 72.6344 99.5114 72.3916 99.2503C71.4962 98.2855 69.9666 98.4523 68.6761 98.1839C67.7133 97.9684 66.8316 97.4832 66.1339 96.7852C65.4362 96.0871 64.9514 95.2049 64.7359 94.2415C64.4749 92.9939 64.6961 91.7027 64.9135 90.4441L65.885 84.8369C66.2927 82.7802 66.5747 80.7006 66.7296 78.6095C66.8487 76.2465 66.6463 73.8782 66.1279 71.5697C65.7001 69.6837 65.0622 67.8376 64.8302 65.9154C64.4259 62.4703 65.3317 58.9992 67.3676 56.1917C67.8714 55.4989 68.5311 54.8062 69.3866 54.7409C70.0789 54.6792 70.7278 55.0492 71.3295 55.4046C76.5565 58.4996 81.8198 61.5305 87.1193 64.4973C88.5692 65.3133 90.0518 66.133 91.6684 66.5356C92.1542 66.6589 92.8501 66.6081 92.919 66.1149C92.9277 65.9268 92.8783 65.7407 92.7776 65.5817C91.8714 63.8372 90.5592 62.3393 89.5153 60.6781C88.4713 59.017 87.6666 57.0512 87.9747 55.1217C88.3952 52.4523 90.8746 50.686 92.9009 52.7787C95.1737 55.1544 96.6961 58.2082 98.1859 61.1279Z" fill="#F86D70"></path>
<path d="M81.9539 94.9777C86.2059 95.2498 90.552 95.5399 94.4886 97.172C95.7537 97.6943 97.0949 98.3689 98.4252 98.0461C99.0873 97.8445 99.7032 97.5142 100.238 97.0741C101.877 95.8717 103.425 94.5503 104.87 93.1208C104.725 92.3265 103.649 92.2177 102.844 92.2249C100.882 92.2366 98.9461 91.7711 97.2036 90.8684C96.6308 90.5238 96.0233 90.2405 95.3912 90.0234C93.6694 89.5482 91.915 90.455 90.1859 90.8975C87.6268 91.5503 84.9299 91.1695 82.3164 90.785L75.2625 89.7441C74.6064 89.6498 73.8669 89.5736 73.3449 89.9799C72.996 90.3097 72.7568 90.739 72.6598 91.2094C71.7971 94.1109 72.2104 94.3539 75.0812 94.5352L81.9539 94.9777Z" fill="#FBBEBE"></path>
<path opacity="0.1" d="M178.273 44.6218C184.679 44.6218 189.872 39.4256 189.872 33.0157C189.872 26.6058 184.679 21.4096 178.273 21.4096C171.867 21.4096 166.673 26.6058 166.673 33.0157C166.673 39.4256 171.867 44.6218 178.273 44.6218Z" fill="black"></path>
<path d="M178.19 44.1176C184.596 44.1176 189.789 38.9214 189.789 32.5116C189.789 26.1017 184.596 20.9055 178.19 20.9055C171.783 20.9055 166.59 26.1017 166.59 32.5116C166.59 38.9214 171.783 44.1176 178.19 44.1176Z" fill="#FBBEBE"></path>
<path d="M187.98 17.7755C188.908 18.3485 189.88 18.9651 190.387 19.9298C190.66 20.5848 190.868 21.2651 191.007 21.9609C191.641 24.137 193.331 26.0267 193.432 28.2935C193.544 30.7779 191.681 32.9359 189.572 34.238C189.09 34.5931 188.51 34.7884 187.911 34.7965C187.299 34.7566 186.77 34.3722 186.208 34.1255C183.826 33.0665 181.162 34.4084 178.639 35.025C176.017 35.6585 173.267 35.4969 170.737 34.5608C169.378 34.053 168.058 33.2914 167.206 32.1126C166.355 30.9339 166.05 29.2836 166.775 28.0178C167.137 27.3722 167.739 26.7883 167.699 26.0521C167.678 25.6096 167.417 25.2106 167.337 24.7754C167.221 24.0826 167.583 23.408 167.953 22.8169C169.631 20.1157 171.751 17.7162 174.224 15.719C174.949 15.1242 175.786 14.5439 176.736 14.5004C178.643 14.4169 180.281 15.8387 182.242 15.8459C184.468 15.8532 186.066 16.5931 187.98 17.7755Z" fill="#3F3D56"></path>
<path opacity="0.1" d="M135.489 30.0598C142.095 30.0598 147.451 24.7012 147.451 18.091C147.451 11.4808 142.095 6.12219 135.489 6.12219C128.883 6.12219 123.527 11.4808 123.527 18.091C123.527 24.7012 128.883 30.0598 135.489 30.0598Z" fill="black"></path>
<path d="M135.699 29.766C142.306 29.766 147.661 24.4074 147.661 17.7972C147.661 11.187 142.306 5.82843 135.699 5.82843C129.093 5.82843 123.737 11.187 123.737 17.7972C123.737 24.4074 129.093 29.766 135.699 29.766Z" fill="#BE6F72"></path>
<path d="M142.09 24.5578C143.779 25.5044 145.863 25.4065 147.748 24.9749C148.817 24.7739 149.831 24.346 150.721 23.72C151.163 23.404 151.527 22.9917 151.786 22.5142C152.046 22.0367 152.193 21.5064 152.218 20.9635C152.218 19.7485 151.42 18.6532 151.322 17.4382C151.203 15.9076 152.2 14.4931 152.305 12.9553C152.41 11.4175 151.652 10.032 150.913 8.71185C149.641 6.44503 148.317 4.1492 146.382 2.41554C144.446 0.681883 141.764 -0.424324 139.226 0.159608C137.979 0.446133 136.823 1.11711 135.551 1.24768C134.42 1.35286 133.303 1.01193 132.176 0.866855C131.049 0.721778 129.784 0.812451 128.975 1.59224C128.533 2.02746 128.25 2.64041 127.732 2.95958C127.381 3.1218 127.017 3.2564 126.645 3.36217C125.336 3.88807 124.738 5.36422 124.274 6.69166L121.164 15.6102C122.204 16.3356 123.458 16.6657 124.597 17.2242C125.735 17.7827 126.84 18.675 127.072 19.9226C127.25 20.8692 126.913 21.9573 127.464 22.748C127.968 23.4734 128.993 23.5967 129.863 23.4734C130.733 23.35 131.607 23.049 132.477 23.1832C134.652 23.5133 135.46 24.848 137.472 23.1832C139.484 21.5185 140.22 23.506 142.09 24.5578Z" fill="#3F3D56"></path>
<path opacity="0.1" d="M84.8646 55.6694C90.8704 55.6694 95.7391 50.7979 95.7391 44.7887C95.7391 38.7794 90.8704 33.908 84.8646 33.908C78.8588 33.908 73.9901 38.7794 73.9901 44.7887C73.9901 50.7979 78.8588 55.6694 84.8646 55.6694Z" fill="black"></path>
<path d="M85.2851 55.0782C91.291 55.0782 96.1597 50.2067 96.1597 44.1975C96.1597 38.1882 91.291 33.3168 85.2851 33.3168C79.2793 33.3168 74.4106 38.1882 74.4106 44.1975C74.4106 50.2067 79.2793 55.0782 85.2851 55.0782Z" fill="#FBBEBE"></path>
<path d="M93.6114 33.5597C91.0224 31.5723 88.1134 30.0415 85.0097 29.0334C83.0233 28.3878 80.8629 27.9453 78.8475 28.5401C76.1144 29.3199 72.4569 30.4841 70.7641 32.7727C69.9304 33.897 69.0858 35.054 68.6835 36.3996C67.8787 39.1053 69.0242 41.9887 68.9481 44.8104C68.8574 48.1 67.1139 51.1031 65.2109 53.787C63.3078 56.4709 62.9236 60.3154 61.7999 63.4128C61.4157 64.4755 61.2924 65.9516 62.282 66.4848C63.152 66.9671 64.2032 66.3651 65.0079 65.7848L69.847 62.2848C70.2232 61.9754 70.6568 61.7437 71.123 61.603C72.1198 61.3708 73.0949 61.9947 73.9286 62.5858L84.0781 69.7671C84.2787 69.3573 84.387 68.9084 84.3951 68.4522C84.4033 67.9959 84.3111 67.5434 84.1252 67.1267C85.0786 67.4205 85.7709 68.2148 86.6083 68.7806C87.4456 69.3464 88.7179 69.5314 89.3269 68.7407C89.9359 67.95 89.4755 66.8874 88.7977 66.249C88.1198 65.6107 87.2281 65.2299 86.5648 64.5734C85.2489 63.2641 85.1148 61.1967 84.2847 59.5429C83.6903 58.3823 82.7297 57.4103 82.3092 56.1735C81.6241 54.1533 82.5194 51.9771 83.3967 50.0331C84.4442 47.7264 85.6296 45.2637 87.8588 44.0596C88.6092 43.6534 89.4392 43.414 90.2077 43.0441C92.1216 42.1265 94.5104 39.9612 95.4456 38.0208C96.2648 36.298 95.0034 34.6333 93.6114 33.5597Z" fill="#3F3D56"></path>
<path opacity="0.1" d="M77.151 69.5169C78.1913 70.1806 79.3658 70.6049 80.388 71.2977C81.4102 71.9904 82.3055 73.0422 82.3345 74.2754C82.3635 75.4541 81.6096 76.4878 80.8846 77.4235L72.0545 89.0187L76.5565 90.212C75.8316 91.213 75.6467 92.4897 75.2697 93.6648C74.8927 94.8399 74.1823 96.0622 72.9788 96.3705C71.8914 96.6497 70.7532 96.0767 69.6295 96.142C68.7994 96.1928 68.0164 96.5845 67.1863 96.6171C66.117 96.657 65.1238 96.0948 64.2321 95.5C62.2457 94.1689 60.2738 92.2612 60.2883 89.8674C60.3353 89.0578 60.4977 88.2591 60.7704 87.4954C62.0717 83.2483 63.4201 78.8997 66.117 75.3671C67.567 73.4811 69.3395 71.8889 71.112 70.3075C71.5151 69.9015 71.9894 69.5733 72.5112 69.3392C73.6712 68.9039 74.9362 69.4407 76.1361 69.7889C77.3359 70.1371 78.8474 70.1879 79.5398 69.1614" fill="black"></path>
<path d="M76.7704 68.8024C77.8107 69.4625 78.9851 69.8905 80.0073 70.5832C81.0296 71.2759 81.9249 72.3277 81.9575 73.5573C81.9901 74.7868 81.2325 75.7733 80.5076 76.709L71.6739 88.2934L76.1759 89.4866C75.4509 90.4877 75.2661 91.7607 74.8891 92.9394C74.5121 94.1182 73.8016 95.3368 72.5982 95.6451C71.5107 95.9244 70.3725 95.3513 69.2488 95.4166C68.4187 95.4638 67.6358 95.8591 66.8057 95.8881C65.7364 95.928 64.7432 95.3658 63.8515 94.771C61.865 93.4436 59.8931 91.5322 59.9113 89.1421C59.9547 88.3323 60.1159 87.5333 60.3897 86.7701C61.6911 82.5193 63.0395 78.1707 65.7364 74.6417C67.1863 72.7521 68.9625 71.1599 70.7314 69.564C71.1363 69.1603 71.6102 68.8324 72.1306 68.5957C73.2905 68.1604 74.5556 68.6972 75.7554 69.049C76.9552 69.4008 78.4668 69.448 79.1591 68.4216" fill="#F86D70"></path>
<g opacity="0.1">
<path opacity="0.1" d="M167.583 29.7079C168.435 30.8867 169.758 31.652 171.114 32.1561C173.643 33.0959 176.395 33.2576 179.016 32.6203C181.553 32.0038 184.203 30.6618 186.585 31.7209C187.147 31.9711 187.672 32.3519 188.285 32.3955C188.884 32.3846 189.465 32.1882 189.949 31.8333C191.417 30.9266 192.765 29.6064 193.41 28.0504C193.41 28.1302 193.41 28.21 193.432 28.2934C193.544 30.7779 191.681 32.9359 189.572 34.2379C189.09 34.593 188.51 34.7884 187.911 34.7965C187.299 34.7566 186.77 34.3721 186.208 34.1255C183.826 33.0664 181.162 34.4084 178.639 35.025C176.017 35.6585 173.267 35.4969 170.737 34.5607C169.378 34.053 168.058 33.2913 167.206 32.1126C166.355 30.9338 166.05 29.2836 166.775 28.0178L166.829 27.9271C166.947 28.569 167.204 29.177 167.583 29.7079Z" fill="black"></path>
<path opacity="0.1" d="M168.065 23.6474C168.094 24.2059 167.757 24.6738 167.435 25.1489C167.39 25.0311 167.355 24.9098 167.33 24.7862C167.221 24.137 167.533 23.5059 167.877 22.9365C167.976 23.1624 168.039 23.4022 168.065 23.6474Z" fill="black"></path>
</g>
<path opacity="0.1" d="M125.122 5.50927L122.012 14.4242C123.052 15.1496 124.306 15.4833 125.445 16.0382C126.583 16.5931 127.688 17.4889 127.92 18.7366C128.098 19.6832 127.761 20.7713 128.312 21.5656C128.816 22.291 129.842 22.4106 130.712 22.291C131.582 22.1713 132.455 21.8666 133.325 22.0008C135.5 22.3309 136.308 23.6656 138.32 22.0189C140.332 20.3723 141.06 22.3272 142.931 23.379C144.62 24.3293 146.704 24.2314 148.589 23.7961C149.658 23.5962 150.672 23.1695 151.562 22.5448C151.688 22.4413 151.809 22.3311 151.924 22.2148C151.647 22.8092 151.229 23.3271 150.706 23.7236C149.816 24.3496 148.803 24.7775 147.734 24.9785C145.849 25.4101 143.746 25.508 142.075 24.5614C140.205 23.5096 139.437 21.591 137.465 23.2013C135.493 24.8117 134.637 23.5132 132.47 23.2013C131.6 23.0671 130.73 23.3681 129.856 23.4915C128.983 23.6148 127.96 23.4915 127.456 22.7661C126.905 21.9754 127.243 20.8873 127.065 19.9407C126.833 18.6931 125.727 17.7972 124.589 17.2423C123.451 16.6874 122.197 16.3501 121.156 15.6283L124.281 6.68801C124.644 5.70512 125.042 4.64244 125.767 3.94244C125.516 4.44909 125.301 4.97263 125.122 5.50927Z" fill="black"></path>
<g opacity="0.1">
<path opacity="0.1" d="M84.9335 67.5184C85.7346 67.8811 86.746 67.9355 87.2534 67.2573C87.8225 66.5319 87.4021 65.4076 86.7242 64.7656C86.0464 64.1237 85.1547 63.7464 84.4913 63.09C83.1755 61.7843 83.0414 59.717 82.2113 58.0631C81.6168 56.8989 80.6563 55.9268 80.2358 54.6901C79.5507 52.6735 80.446 50.4937 81.3232 48.5533C82.3708 46.2466 83.5561 43.784 85.7854 42.5798C86.5357 42.1736 87.3658 41.9342 88.1343 41.5643C90.0482 40.6467 92.4369 38.4778 93.3721 36.5374C94.1587 34.9017 93.0495 33.3131 91.7301 32.2359C92.3717 32.653 92.9988 33.0918 93.6078 33.5597C95.0033 34.6478 96.2611 36.298 95.4202 38.0136C94.485 39.954 92.0962 42.1192 90.1823 43.0368C89.4138 43.3995 88.5837 43.6461 87.8334 44.0524C85.6041 45.2565 84.4188 47.7192 83.3712 50.0259C82.4904 51.9699 81.5951 54.146 82.2838 56.1662C82.7043 57.403 83.6648 58.375 84.2593 59.5356C85.1003 61.1895 85.2235 63.2568 86.5393 64.5661C87.2027 65.2226 88.0944 65.5998 88.7722 66.2418C89.4501 66.8837 89.8597 67.9936 89.3015 68.7334C88.7432 69.4733 87.4165 69.321 86.5828 68.7733C86.021 68.3925 85.5099 67.892 84.9335 67.5184Z" fill="black"></path>
<path opacity="0.1" d="M62.9489 64.3014L67.7881 60.805C68.1641 60.4946 68.5977 60.2617 69.064 60.1196C70.0608 59.8911 71.0359 60.5149 71.8696 61.1061L82.0192 68.2873C82.2199 67.8769 82.3281 67.4274 82.3363 66.9706C82.3444 66.5137 82.2522 66.0607 82.0663 65.6433C82.9979 65.9335 83.6757 66.7096 84.4841 67.2537C84.3666 67.2004 84.2454 67.1555 84.1216 67.1195C84.3075 67.5362 84.3996 67.9887 84.3914 68.4449C84.3833 68.9012 84.2751 69.3501 84.0745 69.7599L73.9249 62.5786C73.0912 61.9874 72.1125 61.3636 71.1193 61.5957C70.6531 61.7365 70.2195 61.9682 69.8434 62.2776L65.0042 65.7775C64.1995 66.3578 63.1483 66.9599 62.2783 66.4775C62.0404 66.3312 61.8451 66.1248 61.7121 65.8791C61.5791 65.6333 61.5131 65.3569 61.5207 65.0775C62.0342 64.8945 62.516 64.6327 62.9489 64.3014Z" fill="black"></path>
</g>
<path d="M183.848 87.9887C183.848 87.9887 163.078 89.6535 158.945 86.7084L177.947 83.7779L183.848 87.9887Z" fill="#E3E8F4"></path>
<path opacity="0.1" d="M183.848 87.9887C183.848 87.9887 163.078 89.6535 158.945 86.7084L177.947 83.7779L183.848 87.9887Z" fill="black"></path>
<path d="M183.848 87.9887L178.03 84.3037C178.03 84.3037 160.674 89.2943 155.919 87.2343L160.758 80.4411L177.954 83.796L183.848 87.9887Z" fill="#E3E8F4"></path>
<path d="M158.039 39.1271C157.398 39.9379 156.883 40.8417 156.513 41.8074C156.346 42.3187 156.263 42.8519 156.122 43.3705C155.724 44.6621 155.111 45.8773 154.309 46.9648C152.522 49.5653 150.289 52.0751 149.84 55.1979C149.622 56.7393 149.862 58.3061 150.166 59.8331C150.331 60.84 150.618 61.8229 151.022 62.76C151.482 63.7538 152.167 64.6278 152.693 65.589C153.173 66.5324 153.578 67.5123 153.903 68.5195C154.523 67.8993 154.889 67.0687 155.386 66.3434C155.882 65.618 156.622 64.9651 157.495 64.9543C158.503 64.9543 159.333 65.7884 160.33 65.919C160.486 65.9504 160.647 65.9353 160.794 65.8755C161.157 65.705 161.186 65.2154 161.157 64.8237C160.87 62.0854 159.304 59.3833 160.044 56.7284C160.725 54.273 163.161 52.7388 164.441 50.5373C165.369 48.9378 165.644 47.0519 165.891 45.2166C166.199 43.0224 166.51 40.81 166.373 38.6012C166.304 37.4877 165.419 30.4515 163.803 31.1878C163.241 31.4417 162.751 32.5188 162.4 33.0012L160.95 35.0577L158.039 39.1271Z" fill="#3F3D56"></path>
<path d="M114.654 84.5177L102.992 94.0166L87.9893 91.3327L98.0917 83.397L114.654 84.5177Z" fill="#E3E8F4"></path>
<path opacity="0.1" d="M115.074 83.9266L103.413 93.4255L88.4097 90.7416L98.5121 82.8059L115.074 83.9266Z" fill="black"></path>
<path d="M114.991 83.4224L103.33 92.9177L88.3228 90.2374L98.4288 82.2981L114.991 83.4224Z" fill="#E3E8F4"></path>
<path opacity="0.1" d="M115.328 82.3235L103.663 91.8223L88.6599 89.1384L98.766 81.2028L115.328 82.3235Z" fill="black"></path>
<path d="M115.241 81.8193L103.58 91.3182L88.5764 88.6343L98.6788 80.6986L115.241 81.8193Z" fill="#E3E8F4"></path>
<path d="M268.633 211.608C268.908 211.474 269.211 211.41 269.517 211.42C269.823 211.43 270.121 211.515 270.387 211.667C270.652 211.819 270.876 212.033 271.04 212.292C271.204 212.55 271.302 212.845 271.326 213.15L271.975 221.568L268.125 222.264L266.095 216.178L268.633 211.608Z" fill="#3F3D56"></path>
<path d="M133.952 155.184L75.0377 185.099C74.3621 185.444 73.7953 185.97 73.4004 186.618C73.0055 187.266 72.7981 188.01 72.8011 188.769C72.8041 189.528 73.0174 190.272 73.4174 190.916C73.8174 191.561 74.3884 192.082 75.0667 192.422L201.954 256.136C204.212 257.267 206.712 257.825 209.236 257.762C211.76 257.699 214.23 257.016 216.428 255.773L269.873 225.619C270.521 225.249 271.056 224.708 271.42 224.056C271.784 223.404 271.963 222.665 271.938 221.919C271.913 221.172 271.685 220.447 271.278 219.82C270.871 219.194 270.301 218.691 269.63 218.365L137.573 155.144C137.007 154.873 136.386 154.736 135.758 154.743C135.13 154.75 134.512 154.901 133.952 155.184Z" fill="#3F3D56"></path>
<path d="M74.6426 179.895L72.7976 181.266L72.6526 187.83C72.6409 188.342 72.7734 188.847 73.0349 189.287C73.2964 189.727 73.6765 190.084 74.1315 190.318L203.186 256.582C203.479 256.733 203.806 256.806 204.135 256.795C204.465 256.783 204.786 256.687 205.067 256.515C205.348 256.343 205.581 256.102 205.742 255.815C205.904 255.527 205.988 255.203 205.988 254.874V245.338L74.6426 179.895Z" fill="#3F3D56"></path>
<path d="M133.952 147.575L75.0377 177.486C74.3616 177.83 73.794 178.355 73.3982 179.002C73.0024 179.65 72.7938 180.394 72.7957 181.153C72.7975 181.912 73.0098 182.656 73.4088 183.301C73.8079 183.946 74.378 184.468 75.0559 184.809L201.954 248.523C204.212 249.653 206.712 250.211 209.236 250.148C211.76 250.085 214.23 249.402 216.428 248.16L269.873 218.002C270.521 217.632 271.056 217.092 271.42 216.44C271.784 215.788 271.963 215.049 271.938 214.302C271.913 213.556 271.685 212.83 271.278 212.204C270.871 211.578 270.301 211.075 269.63 210.749L137.573 147.532C137.007 147.261 136.386 147.124 135.758 147.132C135.13 147.139 134.512 147.291 133.952 147.575Z" fill="#E3E8F4"></path>
<path d="M146.146 153.005L81.2325 185.984L192.801 241.802L259.745 207.804L146.146 153.005Z" fill="#3F3D56"></path>
<path d="M233.628 231.654C237.409 231.654 240.475 229.837 240.475 227.596C240.475 225.354 237.409 223.537 233.628 223.537C229.846 223.537 226.781 225.354 226.781 227.596C226.781 229.837 229.846 231.654 233.628 231.654Z" fill="#3F3D56"></path>
<path d="M108.745 164.168C109.095 164.168 109.379 163.884 109.379 163.534C109.379 163.183 109.095 162.899 108.745 162.899C108.395 162.899 108.111 163.183 108.111 163.534C108.111 163.884 108.395 164.168 108.745 164.168Z" fill="#3F3D56"></path>
<path d="M106.846 169.242C107.266 169.242 107.607 168.901 107.607 168.481C107.607 168.06 107.266 167.719 106.846 167.719C106.425 167.719 106.084 168.06 106.084 168.481C106.084 168.901 106.425 169.242 106.846 169.242Z" fill="#3F3D56"></path>
<path d="M109.633 167.211L117.242 163.66" stroke="#3F3D56" stroke-miterlimit="10"></path>
<path d="M177.034 183.72L155.555 196.128C152.435 197.931 151.365 201.923 153.167 205.046C154.969 208.168 158.959 209.238 162.08 207.435L183.558 195.028C186.679 193.225 187.748 189.232 185.947 186.11C184.145 182.987 180.154 181.917 177.034 183.72Z" fill="#FF8000"></path>
<path d="M196.245 193.514L174.767 205.921C171.646 207.724 170.577 211.717 172.378 214.839C174.18 217.962 178.171 219.032 181.291 217.229L202.77 204.821C205.89 203.019 206.96 199.026 205.158 195.903C203.356 192.781 199.366 191.711 196.245 193.514Z" fill="#FF8000"></path>
<path d="M159.635 172.478L138.156 184.886C135.036 186.688 133.966 190.681 135.768 193.804C137.57 196.926 141.56 197.996 144.681 196.193L166.16 183.785C169.28 181.983 170.349 177.99 168.548 174.868C166.746 171.745 162.756 170.675 159.635 172.478Z" fill="#FF8000"></path>
</g>
<defs>
<clipPath id="clip0">
<rect width="335" height="297" fill="white"></rect>
</clipPath>
</defs>
</svg>
